PathFileType	4	(X/Y/Z)	4_coords_data.trc
DataRate	CameraRate	NumFrames	NumMarkers	Units	OrigDataRate	OrigDataStartFrame	OrigNumFrames
30.0	30.0	4	21	m	30.0	10	57
Frame#	Time	THUMB_TIP	THUMB_IP	THUMB_MCP	THUMB_CMC	INDEX_TIP	INDEX_DIP	INDEX_PIP	INDEX_MCP	MIDDLE_TIP	MIDDLE_DIP	MIDDLE_PIP	MIDDLE_MCP	RING_TIP	RING_DIP	RING_PIP	RING_MCP	PINKY_TIP	PINKY_DIP	PINKY_PIP	PINKY_MCP	WRIST
X1	Y1	Z1	X2	Y2	Z2	X3	Y3	Z3	X4	Y4	Z4	X5	Y5	Z5	X6	Y6	Z6	X7	Y7	Z7	X8	Y8	Z8	X9	Y9	Z9	X10	Y10	Z10	X11	Y11	Z11	X12	Y12	Z12	X13	Y13	Z13	X14	Y14	Z14	X15	Y15	Z15	X16	Y16	Z16	X17	Y17	Z17	X18	Y18	Z18	X19	Y19	Z19	X20	Y20	Z20	X21	Y21	Z21
8	0.2999999999999987	0.47498453748617775	-0.028858165717244533	-0.17258950246648103	0.4797182015522481	-0.029364875488580022	-0.15010983009971307	0.46612335282604433	-0.027446272736412092	-0.12217563865641184	0.4724137176839559	-0.029249223065386576	-0.07805001480738732	0.5583325473292858	0.020889493857293995	-0.18452446689142515	0.5458413617386971	0.019391197565047924	-0.17149659712073323	0.5307946266010284	0.012118230463748825	-0.1527160341834763	0.5042971089149126	0.0033043460639197164	-0.12056275919848547	0.5932322684511652	0.043603646046557754	-0.14086273644753605	0.5781202958850826	0.03705157563734207	-0.13333288528601545	0.5544231602044061	0.024683056582766927	-0.1217193136162742	0.5164575026495302	0.011048360414709801	-0.10251379805874056	0.6043567570905225	0.03930937273954971	-0.09890095518268172	0.5875840823756974	0.03387919650752047	-0.09513391801804244	0.5653316395285929	0.023454118929990275	-0.0910933086780018	0.5285979952740537	0.007878917191305512	-0.08455317835970938	0.6010200031677524	0.0065470080002650866	-0.04263497598979832	0.5843716851184984	0.005855597804589774	-0.04655358008720317	0.5642514988913119	0.005273577103309779	-0.052524457500667254	0.5305422742735908	0.002076271964623788	-0.06494817942777792	0.4622830810018609	-0.023011742144276925	-0.051989820119430985
9	0.33333333333333187	0.4752521284237915	-0.028694850690927476	-0.17256733815990494	0.47984735611815	-0.029236833583743405	-0.1500597808295126	0.4661338199433598	-0.02737333262398356	-0.12217992627903662	0.4724058156134271	-0.02924338983885788	-0.07805448060051962	0.5583824867119298	0.02091024210121184	-0.18447539572384902	0.5458899993240064	0.019413819640355046	-0.17144855885985083	0.5308339796357059	0.012156855544573242	-0.15266924640550245	0.5043185431993805	0.003379290176068195	-0.12052080832846968	0.5932421880810653	0.043690290302085044	-0.14079575496037194	0.5781367426534848	0.03711359986978113	-0.13327427496026395	0.5544445766385406	0.024728666484192585	-0.12166805918789142	0.5164818123584011	0.011091009793614104	-0.10245892674520996	0.6043918961789496	0.039265786338024244	-0.098876771934934	0.587618920799549	0.03384430426459517	-0.09509856746064838	0.5653642461953476	0.02342698151509026	-0.09105025620856311	0.5286108936536478	0.007899525242148875	-0.08450732012165063	0.6010487395598313	0.006398367900130597	-0.04262804808610582	0.5843904244055804	0.005760887316115126	-0.04651316774020414	0.5642656761252212	0.00522240946205188	-0.05247274551491765	0.5305491911368124	0.002086226971627081	-0.06489234496148455	0.4622830810018609	-0.023011742144276925	-0.051989820119430985
10	0.3666666666666651	0.4755670967700707	-0.028511117194840563	-0.17253925108411122	0.4800037947939698	-0.029105857549614256	-0.15000123887018402	0.46616404980490067	-0.027310607681619636	-0.1221793313771849	0.47240746189294425	-0.029248004704890862	-0.0780527373745532	0.5584584339434377	0.020922067474977823	-0.18440893204161224	0.5459660726291549	0.01943289270107862	-0.1713811437686094	0.5308971787822621	0.012187476090180116	-0.15260769950908176	0.5043495859834415	0.003446463372420716	-0.12047584448550752	0.5932816954977927	0.043764820337404475	-0.1406950866619866	0.5781817429462683	0.03716648723853966	-0.13318153668490268	0.5544876701939226	0.024773447202133037	-0.12158787354236772	0.5165215141662207	0.011120887276117153	-0.10239603869140212	0.6044507734656407	0.03920857048144155	-0.09879142356204912	0.5876743165399988	0.03379847388346513	-0.09501235650487128	0.5654146584856042	0.023389277010347875	-0.09097054716274339	0.5286386928217928	0.007909964440779738	-0.08444061103229139	0.6010798611522726	0.006256865010138113	-0.04259433557025627	0.5844112367609174	0.005673456386131481	-0.04644356864677296	0.5642820683699059	0.005174164785646362	-0.052391619317706084	0.5305650537573005	0.002080000387845171	-0.06482031688795581	0.4622830810018609	-0.023011742144276925	-0.051989820119430985
11	0.39999999999999825	0.47584828216310504	-0.028280741128960618	-0.1725204552759243	0.48013645275106875	-0.028932950728329132	-0.149955300376234	0.4661807317676785	-0.02721302070872411	-0.12218661851048057	0.47239804931159646	-0.029232767272565297	-0.07806003257438138	0.558502227740843	0.02094209057423002	-0.18436144465904475	0.5460132524841349	0.01946542366679238	-0.17132898702888882	0.5309338806319487	0.012230113334402382	-0.15256005893116542	0.5043641388967706	0.0035227728834347216	-0.12043737005870514	0.5933166954206888	0.043807345444516366	-0.14061269619367045	0.578219096789521	0.03719331080251953	-0.13310822677027828	0.5545212495734043	0.024797639511723646	-0.12152509590802268	0.5165434325308913	0.011154048781301995	-0.1023499618624375	0.6045065287257528	0.03911328046916407	-0.09874231104232417	0.587725433718404	0.033720063454484084	-0.09495971132957326	0.5654595508363998	0.02332105048230937	-0.09092598257203272	0.5286548618784151	0.007902147155467443	-0.08441498227226896	0.6011184679711679	0.006083987775672428	-0.04263273418614849	0.5844383676335893	0.005559812516498952	-0.0464405541695484	0.564302348042738	0.005106071355147623	-0.05236903230439527	0.5305789876713661	0.0020567393012361768	-0.0647915920360918	0.4622830810018609	-0.023011742144276925	-0.051989820119430985
